<?xml version="1.0" ?><svg style="enable-background:new 0 0 48 48;" version="1.1" viewBox="0 0 48 48" xml:space="preserve" xmlns="http://www.w3.org/2000/svg" xmlns:xlink="http://www.w3.org/1999/xlink"><g id="Padding__x26__Artboard"/><g id="Icons"><g><path d="M20.50151,29.23935c1.52832,1.12402,2.67773,1.69141,3.50879,1.73096    c0.83154-0.03955,1.98096-0.60693,3.50928-1.73096c1.78027-1.31036,1.91852-3.90619,1.95056-4.89966    c-0.14117,0.09766-0.28815,0.18427-0.43152,0.24585c-0.04541,0.01904-0.0918,0.02832-0.13818,0.02832    c-0.13574,0-0.26465-0.07959-0.32178-0.21191c-0.07617-0.17773,0.00635-0.38379,0.18359-0.45996    c0.37933-0.16278,0.67133-0.46722,0.76062-0.58459c0.04065-0.69171,0.09387-1.66473,0.11438-2.04529    c-0.0036-0.00446-0.00677-0.0127-0.01038-0.01733l-0.65948,0.30872c-0.07574,1.02893-0.96704,1.8468-2.06354,1.8468    c-0.57764,0-1.1001-0.22723-1.47705-0.5921v0.8963l0.09814,0.07861c0.29883,0.34375,0.60596,0.96631,0.17676,1.42188    c-0.22754,0.24023-0.44238,0.29932-0.69971,0.18848c-0.01074,0.00684-0.0376,0.02197-0.07666,0.05127    c-0.39893,0.29541-0.65869,0.37256-0.82178,0.37256c-0.00659,0-0.01099-0.00159-0.01727-0.00183    c-0.00635,0.00024-0.01074,0.00183-0.0174,0.00183c-0.1626,0.00049-0.42188-0.07715-0.8208-0.37256    c-0.06885-0.05127-0.1001-0.06006-0.1001-0.06006c-0.23047,0.11865-0.44824,0.06201-0.67676-0.17969    c-0.4292-0.45557-0.12207-1.07812,0.12744-1.37402c0.12402-0.14795,0.34473-0.16504,0.49121-0.04248    c0.14795,0.12354,0.16797,0.34375,0.04492,0.49219c-0.09131,0.11084-0.22266,0.35498-0.1582,0.43896    c0.17871-0.05859,0.39209-0.05713,0.68799,0.1626c0.28296,0.20972,0.40802,0.23401,0.41541,0.23517    c0.00647,0.00079,0.01215-0.00208,0.01868-0.00079c0.03223-0.0083,0.16064-0.0498,0.41016-0.23438    c0.2915-0.21729,0.50391-0.22021,0.67139-0.16895c0.05078-0.13281-0.06152-0.33447-0.14209-0.43262l-0.17969-0.13428    c-0.0835-0.06641-0.13184-0.16699-0.13184-0.27344v-2.96979c-0.35504-0.12268-0.93683-0.20276-1.63593,0.08618    c0.03174,0.13763,0.05096,0.27954,0.05096,0.42609c0,1.09424-0.93213,1.98486-2.07764,1.98486    c-1.0672,0-1.93866-0.77521-2.05487-1.76508l-0.45993-0.25307c0,0-0.04611,2.07143-0.01254,2.545    c0.00391,0.05713,0.00684,0.14062,0.00977,0.24609C18.57378,25.12802,18.65727,27.88193,20.50151,29.23935z M22.32671,26.93905    c0.07031,0,0.13818,0.01709,0.23242,0.04053c0.18799,0.04639,0.50342,0.12451,0.87402,0.07373    c0.22809-0.03131,0.59418-0.06189,0.85449-0.00415c0.26007-0.05725,0.62592-0.02673,0.854,0.00415    c0.37158,0.05078,0.68555-0.02734,0.87354-0.07373c0.09424-0.02344,0.16211-0.04053,0.23291-0.04053    c0.19336,0,0.3501,0.15674,0.3501,0.3501c0,0.18555-0.14453,0.3374-0.32715,0.34912l-0.08691,0.02051    c-0.22168,0.05518-0.6333,0.15771-1.13818,0.08789c-0.29443-0.03955-0.78467,0.02979-0.78467,0.02979    s-0.47388-0.06531-0.73242-0.02979c-0.12012,0.0166-0.23535,0.02344-0.34375,0.02344c-0.34668,0-0.62598-0.06934-0.79492-0.11133    l-0.09033-0.021c-0.19336,0-0.33643-0.15625-0.33643-0.34961S22.13335,26.93905,22.32671,26.93905z" style="fill:#303030;"/><path d="M24.1021,31.67245c-0.05811,0-0.12402,0-0.18311,0c-0.0332,0-0.06543-0.00488-0.0957-0.01318    c-0.66534-0.06415-1.75305-0.40198-3.71094-1.8382v0.5155c1.3692,2.01038,2.75073,3.00891,4.11475,2.92084    c2.00116-0.10986,3.42139-2.47394,3.66113-2.89954V29.8356c-1.94427,1.42285-3.02753,1.75977-3.69043,1.82367    C24.16753,31.66757,24.1353,31.67245,24.1021,31.67245z" style="fill:#303030;"/><ellipse cx="21.06389" cy="21.46554" rx="1.37769" ry="1.28442" style="fill:#303030;"/><ellipse cx="26.90398" cy="21.46554" rx="1.37769" ry="1.28442" style="fill:#303030;"/><path d="M18.86089,18.59335c-0.07275,0.2627-0.11963,0.78955-0.15039,1.13037    c-0.03326,0.37286-0.06451,0.68201-0.10883,0.93811l0.47333,0.26044c0.09491-0.31586,0.26349-0.6012,0.49615-0.83154    c-0.00055,0.00049-0.00122,0.00067-0.00177,0.00116c-0.06689,0.06006-0.15039,0.08936-0.2334,0.08936    c-0.09619,0-0.19141-0.03955-0.26074-0.1167c-0.12891-0.14404-0.1167-0.36523,0.02734-0.49414    c0.0354-0.03174,0.0755-0.04761,0.11182-0.07648c-0.02496-0.00946-0.05243-0.0083-0.0752-0.02362    c-0.11572-0.07861-0.17334-0.21826-0.14697-0.35596C18.99907,19.07675,19.04448,18.77402,18.86089,18.59335z" style="fill:#303030;"/><path d="M28.63188,20.18124c-0.08301,0-0.1665-0.0293-0.2334-0.08936c0,0-0.00122-0.00067-0.00177-0.00116    c0.22046,0.21826,0.38226,0.48633,0.4801,0.78235l0.44275-0.20721c-0.13831-0.3819-0.27722-0.88599-0.44257-1.5647    l-0.07422-0.2998c-0.05518-0.12695-0.52441-0.47412-0.86719-0.72705c-0.98193-0.72656-2.32715-1.72119-2.40869-3.00098    c-0.04584-0.71564-0.30762-1.1532-0.56653-1.42029c0.01489,0.5589-0.09967,1.31268-0.68347,1.9989    c-0.81494,0.9585-0.63574,1.85986-0.62793,1.89795c0.04004,0.18799-0.0791,0.37451-0.26709,0.41553    c-0.02539,0.00586-0.05078,0.0083-0.07568,0.0083c-0.15967,0-0.30322-0.10889-0.34033-0.27051    c-0.01172-0.05127-0.27393-1.26807,0.77783-2.50439c0.35669-0.41931,0.47937-0.87421,0.51044-1.26013    c-0.15851,0.16168-0.35132,0.33942-0.60321,0.54041c-1.01709,0.81152-1.6084,1.96582-1.58203,3.0874    c0.00342,0.15918-0.10059,0.30078-0.25342,0.34473c-0.15137,0.04443-0.31592-0.02051-0.39746-0.15723    c-0.01807-0.03076-0.34912-0.59912-0.36572-1.48975c-0.3999,0.396-0.80322,0.92578-0.8042,1.41602    c-0.00165,0.72748-0.2052,1.18182-0.39716,1.45502c1.17053-0.44165,2.4682,0.05444,2.53534,0.0816l0.42432,0.19824    c0.17529,0.08203,0.25049,0.29053,0.16846,0.46533c-0.08136,0.17487-0.28888,0.24988-0.46399,0.16876    c0.1131,0.10571,0.21124,0.22455,0.29688,0.35248c1.05011-0.44086,1.90955-0.22211,2.35706-0.02289    c0.08234-0.11951,0.17719-0.22992,0.28381-0.32959c-0.17462,0.08063-0.38165,0.0061-0.46399-0.16876    c-0.08203-0.1748-0.00684-0.3833,0.16846-0.46533l0.40723-0.19092c0.09814-0.04053,2.02148-0.79932,3.30078,0.34619    c0.14404,0.12891,0.15625,0.3501,0.02734,0.49414C28.82329,20.14169,28.72808,20.18124,28.63188,20.18124z" style="fill:#303030;"/><path d="M33.52739,20.27206c0.07031-0.46729-0.07812-0.98682-0.26611-1.64453    c-0.20654-0.72314-0.46387-1.62256-0.50928-2.76074c-0.06934-1.7417-0.90967-2.69287-1.7998-3.69971    c-0.28857-0.32715-0.5874-0.66504-0.86523-1.03857c-0.9751-1.31299-2.98389-1.47266-4.625-1.45996    c-0.4248,0.00244-0.7959,0.05469-1.13525,0.16064l-0.13818,0.04492c-0.10352,0.03467-0.20654,0.0708-0.31543,0.08789    c-0.13184,0.01611-0.24365-0.02539-0.43506-0.10547l-0.13379-0.05469c-0.65332-0.25732-1.50391-0.1543-2.18701-0.07324    l-0.12207,0.01465c-1.07227,0.12598-1.85352,0.37744-2.45947,0.7915c-0.25244,0.17285-0.46387,0.37256-0.62793,0.59375    c-0.27783,0.37354-0.57617,0.71143-0.86523,1.03809c-0.88965,1.00684-1.72998,1.95801-1.79932,3.7002    c-0.0459,1.13818-0.30273,2.03808-0.50977,2.76074c-0.18799,0.65771-0.33643,1.17725-0.26611,1.64453    c0.08252,0.54492,0.37695,1.09619,0.61328,1.53857c0.10059,0.18848,0.23828,0.44678,0.25391,0.479    c-0.03076,0.11523-0.3125,0.49072-0.60352,0.80273c-0.09814,0.10498-0.12207,0.25928-0.06006,0.38916    s0.20166,0.21338,0.33936,0.19873c0.09277-0.00635,0.46777-0.04053,0.77637-0.19434    c0.12891,0.31494,0.27783,0.90234,0.27783,1.15527c0,0.57324,0.85254,2.28125,1.57861,2.78467    c0.15625,0.1084,0.23096,0.23486,0.22754,0.38623c-0.00439,0.19775-0.13623,0.38623-0.2583,0.46338    c-0.14111,0.08936-0.19971,0.26562-0.13965,0.42188c0.05957,0.15576,0.22363,0.24658,0.38672,0.21875    c0.24731-0.0434,0.73572-0.15869,1.05377-0.40894c-0.49896-0.67639-0.65259-1.46704-0.65259-1.46704    c-0.35309-1.15576-0.39764-2.26611-0.41388-2.7959c-0.00244-0.09326-0.00724-0.16689-0.0083-0.21826    c-0.05532-2.67645,0.14789-4.06305,0.1748-4.36475c0.08887-0.98975,0.15625-1.56006,0.50586-1.77393    c0.14014-0.08594,0.30469-0.09863,0.46484-0.03271c0.22998,0.09326,0.39111,0.23535,0.50195,0.39697    c0.03662-0.15576,0.06152-0.34473,0.06201-0.57324c0.00293-1.3125,1.66602-2.47363,1.73682-2.52246    c0.11865-0.08252,0.27393-0.08203,0.39355-0.00244c0.11914,0.07959,0.17773,0.22461,0.14697,0.36475    c-0.01318,0.06152-0.02441,0.12158-0.03369,0.18066c0.31641-0.66113,0.80176-1.271,1.42285-1.7666    c0.1991-0.15887,0.39157-0.3227,0.56949-0.50504c0.11217-0.11495,0.22105-0.23633,0.30011-0.37705    c0.07338-0.1306,0.08892-0.31428,0.21486-0.40892c0.14104-0.10597,0.34159-0.02478,0.48506,0.03341    c0.36232,0.14697,0.67342,0.43496,0.90242,0.74713c0.32275,0.43997,0.48489,0.9748,0.53182,1.51425    c0.00268,0.03078,0.00498,0.06159,0.00697,0.09241c0.06152,0.95508,1.25488,1.83838,2.12695,2.48291    c0.62695,0.46387,1.04102,0.77002,1.12939,1.11768l0.07568,0.30664c0.08746,0.35968,0.32349,1.32446,0.52661,1.77332    c0.03558,0.07587,0.07007,0.13885,0.10132,0.16907c0.12012,0.06396,0.16748,0.1748,0.16016,0.31104    c0,0-0.12207,2.26123-0.1626,2.83691c-0.00342,0.05127-0.00586,0.125-0.0083,0.21826    c-0.01605,0.5249-0.05914,1.61963-0.40314,2.76379c0,0-0.16193,0.82904-0.67236,1.51172    c0.31836,0.24127,0.79327,0.35376,1.03595,0.39636c0.02051,0.00342,0.04053,0.00537,0.06055,0.00537    c0.14258,0,0.27393-0.0874,0.32666-0.22412c0.06006-0.15625,0.00146-0.33252-0.13965-0.42188    c-0.12207-0.07715-0.25391-0.26514-0.25781-0.46289c-0.00342-0.15186,0.0708-0.27832,0.22754-0.38672    c0.72607-0.50391,1.57812-2.21191,1.57812-2.78467c0-0.25293,0.14941-0.84082,0.27783-1.15527    c0.30859,0.15381,0.68359,0.18799,0.77637,0.19434c0.146,0.01416,0.27783-0.06885,0.33936-0.19873    c0.06201-0.12988,0.03809-0.28418-0.06006-0.38916c-0.29053-0.31201-0.57227-0.68701-0.6001-0.75537    c0.01221-0.08008,0.15039-0.33838,0.25098-0.52686C33.15092,21.36728,33.44487,20.8165,33.52739,20.27206z" style="fill:#303030;"/><path d="M40.1226,35.32382c-1.14746-3.21338-5.75928-3.96875-7.68896-4.14453    c-1.73242-0.15723-3.29883-0.74072-3.84521-0.96289l-0.19983,0.67432c-0.47028,0.78326-1.9574,2.94501-4.12,3.06543    c-0.06299,0.00391-0.12549,0.00537-0.18799,0.00537c-1.52148,0-3.01245-1.04291-4.43945-3.08277l-0.229-0.66235    c-0.54639,0.22217-2.11279,0.80566-3.84521,0.96289c-1.92969,0.17578-6.5415,0.93115-7.68945,4.14453    c-0.05566,0.15576,0.00537,0.3291,0.146,0.41553c0.17236,0.10645,4.36328,2.60547,16.26367,2.62256c0.04102,0,0.08057,0,0.12109,0    c12.05224,0,15.45996-2.53564,15.59912-2.64404C40.127,35.62509,40.17339,35.4664,40.1226,35.32382z" style="fill:#303030;"/></g></g></svg>