<?xml version="1.0" ?><svg viewBox="0 0 60 60" xmlns="http://www.w3.org/2000/svg"><title/><g id="text"><text font-family="MyriadPro-Regular, Myriad Pro" font-size="9" transform="translate(3.54932 67.39014)"><tspan letter-spacing="0.00499em"/><tspan x="5.85889" y="0"/><tspan letter-spacing="-0.00602em" x="40.94971" y="0"/><tspan x="43.87451" y="0"/></text></g><g data-name="Layer 1" id="Layer_1"><path d="M5.87256,4.74009c9.85617,5.41474,17.37451,11.45242,18.07434,33.75986a.50466.50466,0,0,1-.84226.38962l-9.958-9.19207a.47855.47855,0,0,1-.1567-.34118C12.80275,23.15336,9.9754,13.53544,5.20168,5.43919A.50155.50155,0,0,1,5.87256,4.74009ZM36.235,45H23.765A7.9793,7.9793,0,0,1,36.235,45ZM22.06946,51H37.93054a7.93316,7.93316,0,0,1-.51953,2H22.589A7.93316,7.93316,0,0,1,22.06946,51Zm0-2a7.93316,7.93316,0,0,1,.51953-2H37.411a7.93316,7.93316,0,0,1,.51953,2ZM30,58a7.98468,7.98468,0,0,1-6.235-3H36.235A7.98468,7.98468,0,0,1,30,58ZM46.85335,29.69749l-9.958,9.19207a.50466.50466,0,0,1-.84226-.38962c.69983-22.30744,8.21817-28.34512,18.07434-33.75986a.50155.50155,0,0,1,.67088.69911c-4.77372,8.09625-7.60107,17.71417-7.78826,23.91712A.47855.47855,0,0,1,46.85335,29.69749Z"/></g></svg>