<svg width="30" height="30" style="fill: #fff;" viewBox="0 0 60 60" xmlns="http://www.w3.org/2000/svg"><title/><g data-name="Layer 1" id="Layer_1"><path d="M44.68749,2.93038,50.0182,7.59445a.98429.98429,0,0,1,.164,1.28384A24.95963,24.95963,0,0,0,45.84155,25H33V7.773A19.68351,19.68351,0,0,0,43.38172,2.94437.989.989,0,0,1,44.68749,2.93038ZM9.98552,7.5912,15.3087,2.93372a.994.994,0,0,1,1.30957.01066A19.68351,19.68351,0,0,0,27,7.773V25H14.15845A24.95963,24.95963,0,0,0,9.81781,8.87829.98921.98921,0,0,1,9.98552,7.5912ZM23.39209,51.48779c-2.58594-.93848-5.25977-1.90869-7.51807-5.97363a1.00058,1.00058,0,0,0-.73535-.50439A1.024,1.024,0,0,0,15,45a.99991.99991,0,0,0-.707.293l-1.50759,1.50759a.99.99,0,0,1-1.44-.0423L6.14581,40.909a.99064.99064,0,0,1,.11395-1.41564A22.99,22.99,0,0,0,12.61365,31H27V53.138A16.82117,16.82117,0,0,0,23.39209,51.48779Zm6.19629,4.28656c-.18991-.28638-.38716-.54951-.58838-.79993V30a1,1,0,0,0-1-1H13.34528a20.53459,20.53459,0,0,0,.5094-2H28a1,1,0,0,0,1-1V7.95605C29.33325,7.97089,29.66071,8,30,8s.66675-.02911,1-.04395V26a1,1,0,0,0,1,1H46.14532a20.53459,20.53459,0,0,0,.5094,2H32a1,1,0,0,0-1,1V54.97443c-.20122.25042-.39848.51355-.58838.79993A.49483.49483,0,0,1,29.58838,55.77436Zm19.06619-9.01609a.99.99,0,0,1-1.44.0423L45.707,45.293a1,1,0,0,0-1.58105.22119c-2.2583,4.06494-4.93213,5.03516-7.51807,5.97363A16.82117,16.82117,0,0,0,33,53.138V31H47.38635a22.99,22.99,0,0,0,6.35389,8.49334.99064.99064,0,0,1,.11395,1.41564Z"/></g></svg>